<mxfile host="65bd71144e">
    <diagram id="V3HqiKd-JH3Gh6SyLHTc" name="Page-1">
        <mxGraphModel dx="397" dy="179" grid="1" gridSize="10" guides="1" tooltips="1" connect="1" arrows="1" fold="1" page="1" pageScale="1" pageWidth="827" pageHeight="1169" math="0" shadow="0">
            <root>
                <mxCell id="0"/>
                <mxCell id="1" parent="0"/>
                <mxCell id="UyANY9crpCaUTtqs_EAQ-15" value="" style="endArrow=none;html=1;rounded=0;startSize=4;endSize=4;fillColor=#d5e8d4;strokeColor=#82b366;strokeWidth=3;" parent="1" edge="1">
                    <mxGeometry width="50" height="50" relative="1" as="geometry">
                        <mxPoint x="340" y="720" as="sourcePoint"/>
                        <mxPoint x="340" y="670" as="targetPoint"/>
                    </mxGeometry>
                </mxCell>
                <mxCell id="UyANY9crpCaUTtqs_EAQ-17" value="" style="endArrow=none;html=1;rounded=0;startSize=4;endSize=4;fillColor=#ffe6cc;strokeColor=#d79b00;strokeWidth=3;" parent="1" edge="1">
                    <mxGeometry width="50" height="50" relative="1" as="geometry">
                        <mxPoint x="383" y="720" as="sourcePoint"/>
                        <mxPoint x="383" y="670" as="targetPoint"/>
                    </mxGeometry>
                </mxCell>
                <mxCell id="UyANY9crpCaUTtqs_EAQ-16" value="" style="endArrow=none;html=1;rounded=0;startSize=4;endSize=4;fillColor=#ffe6cc;strokeColor=#d79b00;strokeWidth=3;" parent="1" edge="1">
                    <mxGeometry width="50" height="50" relative="1" as="geometry">
                        <mxPoint x="319.86" y="720" as="sourcePoint"/>
                        <mxPoint x="319.86" y="670" as="targetPoint"/>
                    </mxGeometry>
                </mxCell>
                <mxCell id="UyANY9crpCaUTtqs_EAQ-10" value="" style="endArrow=none;html=1;rounded=0;startSize=4;endSize=4;fillColor=#d5e8d4;strokeColor=#82b366;strokeWidth=3;" parent="1" edge="1">
                    <mxGeometry width="50" height="50" relative="1" as="geometry">
                        <mxPoint x="350" y="720" as="sourcePoint"/>
                        <mxPoint x="350" y="670" as="targetPoint"/>
                    </mxGeometry>
                </mxCell>
                <mxCell id="UyANY9crpCaUTtqs_EAQ-11" value="" style="endArrow=none;html=1;rounded=0;startSize=4;endSize=4;fillColor=#d5e8d4;strokeColor=#82b366;strokeWidth=3;" parent="1" edge="1">
                    <mxGeometry width="50" height="50" relative="1" as="geometry">
                        <mxPoint x="355" y="720" as="sourcePoint"/>
                        <mxPoint x="355" y="670" as="targetPoint"/>
                    </mxGeometry>
                </mxCell>
                <mxCell id="UyANY9crpCaUTtqs_EAQ-12" value="" style="endArrow=none;html=1;rounded=0;startSize=4;endSize=4;fillColor=#d5e8d4;strokeColor=#82b366;strokeWidth=3;" parent="1" edge="1">
                    <mxGeometry width="50" height="50" relative="1" as="geometry">
                        <mxPoint x="358" y="720" as="sourcePoint"/>
                        <mxPoint x="358" y="670" as="targetPoint"/>
                    </mxGeometry>
                </mxCell>
                <mxCell id="UyANY9crpCaUTtqs_EAQ-13" value="" style="endArrow=none;html=1;rounded=0;startSize=4;endSize=4;fillColor=#d5e8d4;strokeColor=#82b366;strokeWidth=3;" parent="1" edge="1">
                    <mxGeometry width="50" height="50" relative="1" as="geometry">
                        <mxPoint x="365" y="720" as="sourcePoint"/>
                        <mxPoint x="365" y="670" as="targetPoint"/>
                    </mxGeometry>
                </mxCell>
                <mxCell id="UyANY9crpCaUTtqs_EAQ-14" value="" style="endArrow=none;html=1;rounded=0;startSize=4;endSize=4;fillColor=#d5e8d4;strokeColor=#82b366;strokeWidth=3;" parent="1" edge="1">
                    <mxGeometry width="50" height="50" relative="1" as="geometry">
                        <mxPoint x="373" y="720" as="sourcePoint"/>
                        <mxPoint x="373" y="670" as="targetPoint"/>
                    </mxGeometry>
                </mxCell>
                <mxCell id="0yi1-Wfi2QRWIN-qVs_s-95" value="" style="rounded=0;whiteSpace=wrap;html=1;verticalAlign=top;fontFamily=Cascadia Code;fontStyle=0;container=0;fillColor=#FFFFFF;strokeColor=none;absoluteArcSize=1;arcSize=10;" parent="1" vertex="1">
                    <mxGeometry x="570" y="280" width="230" height="80" as="geometry"/>
                </mxCell>
                <mxCell id="0yi1-Wfi2QRWIN-qVs_s-91" value="" style="rounded=0;whiteSpace=wrap;html=1;verticalAlign=top;fontFamily=Cascadia Code;fontStyle=0;container=0;fillColor=#FFFFFF;strokeColor=none;absoluteArcSize=1;arcSize=10;" parent="1" vertex="1">
                    <mxGeometry x="570" y="480" width="230" height="50" as="geometry"/>
                </mxCell>
                <mxCell id="0yi1-Wfi2QRWIN-qVs_s-1" value="" style="rounded=0;whiteSpace=wrap;html=1;fillColor=#FFF2CC;strokeColor=none;fillStyle=auto;gradientColor=none;shadow=0;strokeWidth=1;perimeterSpacing=0;" parent="1" vertex="1">
                    <mxGeometry x="80" y="460" width="290" height="40" as="geometry"/>
                </mxCell>
                <mxCell id="0yi1-Wfi2QRWIN-qVs_s-2" value="" style="rounded=0;whiteSpace=wrap;html=1;fillColor=#f8cecc;strokeColor=none;fillStyle=auto;shadow=0;strokeWidth=1;perimeterSpacing=0;" parent="1" vertex="1">
                    <mxGeometry x="80" y="420" width="290" height="40" as="geometry"/>
                </mxCell>
                <mxCell id="0yi1-Wfi2QRWIN-qVs_s-3" value="" style="rounded=0;whiteSpace=wrap;html=1;fillColor=#d5e8d4;strokeColor=none;fillStyle=auto;shadow=0;strokeWidth=1;perimeterSpacing=0;" parent="1" vertex="1">
                    <mxGeometry x="80" y="380" width="290" height="40" as="geometry"/>
                </mxCell>
                <mxCell id="0yi1-Wfi2QRWIN-qVs_s-4" value="" style="rounded=0;whiteSpace=wrap;html=1;fillColor=#dae8fc;strokeColor=none;fillStyle=auto;shadow=0;strokeWidth=1;perimeterSpacing=0;" parent="1" vertex="1">
                    <mxGeometry x="80" y="340" width="290" height="40" as="geometry"/>
                </mxCell>
                <mxCell id="0yi1-Wfi2QRWIN-qVs_s-5" value="" style="rounded=0;whiteSpace=wrap;html=1;fillColor=#f5f5f5;strokeColor=none;fillStyle=auto;shadow=0;strokeWidth=1;perimeterSpacing=0;fontColor=#333333;" parent="1" vertex="1">
                    <mxGeometry x="80" y="300" width="290" height="40" as="geometry"/>
                </mxCell>
                <mxCell id="0yi1-Wfi2QRWIN-qVs_s-7" value="Plant" style="rounded=0;whiteSpace=wrap;html=1;fillColor=#f0a30a;strokeColor=#BD7000;fillStyle=auto;shadow=0;strokeWidth=1;perimeterSpacing=0;fontColor=#FFFFFF;fontFamily=Cascadia Code;fontStyle=1;fontSize=11;" parent="1" vertex="1">
                    <mxGeometry x="90" y="470" width="130" height="20" as="geometry"/>
                </mxCell>
                <mxCell id="0yi1-Wfi2QRWIN-qVs_s-17" style="edgeStyle=elbowEdgeStyle;rounded=0;orthogonalLoop=1;jettySize=auto;html=1;exitX=0.5;exitY=1;exitDx=0;exitDy=0;fontFamily=Cascadia Code;fontSize=8;fontColor=#FFFFFF;startArrow=openThin;startFill=0;endArrow=openThin;endFill=0;strokeWidth=2;jumpSize=6;startSize=3;endSize=3;" parent="1" source="0yi1-Wfi2QRWIN-qVs_s-9" target="0yi1-Wfi2QRWIN-qVs_s-7" edge="1">
                    <mxGeometry relative="1" as="geometry"/>
                </mxCell>
                <mxCell id="0yi1-Wfi2QRWIN-qVs_s-9" value="μC" style="rounded=0;whiteSpace=wrap;html=1;fillColor=#e51400;strokeColor=#B20000;fillStyle=auto;shadow=0;strokeWidth=1;perimeterSpacing=0;fontColor=#ffffff;fontFamily=Cascadia Code;fontStyle=1;fontSize=11;" parent="1" vertex="1">
                    <mxGeometry x="90" y="430" width="20" height="20" as="geometry"/>
                </mxCell>
                <mxCell id="0yi1-Wfi2QRWIN-qVs_s-18" style="edgeStyle=elbowEdgeStyle;rounded=0;orthogonalLoop=1;jettySize=auto;html=1;exitX=0.5;exitY=1;exitDx=0;exitDy=0;fontFamily=Cascadia Code;fontSize=8;fontColor=#FFFFFF;startArrow=openThin;startFill=0;endArrow=openThin;endFill=0;strokeWidth=2;jumpSize=6;startSize=3;endSize=3;" parent="1" source="0yi1-Wfi2QRWIN-qVs_s-10" target="0yi1-Wfi2QRWIN-qVs_s-7" edge="1">
                    <mxGeometry relative="1" as="geometry"/>
                </mxCell>
                <mxCell id="0yi1-Wfi2QRWIN-qVs_s-10" value="μC" style="rounded=0;whiteSpace=wrap;html=1;fillColor=#e51400;strokeColor=#B20000;fillStyle=auto;shadow=0;strokeWidth=1;perimeterSpacing=0;fontColor=#ffffff;fontFamily=Cascadia Code;fontStyle=1;fontSize=11;" parent="1" vertex="1">
                    <mxGeometry x="130" y="430" width="20" height="20" as="geometry"/>
                </mxCell>
                <mxCell id="0yi1-Wfi2QRWIN-qVs_s-19" style="edgeStyle=elbowEdgeStyle;rounded=0;orthogonalLoop=1;jettySize=auto;html=1;exitX=0.5;exitY=1;exitDx=0;exitDy=0;fontFamily=Cascadia Code;fontSize=8;fontColor=#FFFFFF;startArrow=openThin;startFill=0;endArrow=openThin;endFill=0;strokeWidth=2;jumpSize=6;startSize=3;endSize=3;" parent="1" source="0yi1-Wfi2QRWIN-qVs_s-11" target="0yi1-Wfi2QRWIN-qVs_s-7" edge="1">
                    <mxGeometry relative="1" as="geometry"/>
                </mxCell>
                <mxCell id="0yi1-Wfi2QRWIN-qVs_s-11" value="μC" style="rounded=0;whiteSpace=wrap;html=1;fillColor=#e51400;strokeColor=#B20000;fillStyle=auto;shadow=0;strokeWidth=1;perimeterSpacing=0;fontColor=#ffffff;fontFamily=Cascadia Code;fontStyle=1;fontSize=11;" parent="1" vertex="1">
                    <mxGeometry x="160" y="430" width="20" height="20" as="geometry"/>
                </mxCell>
                <mxCell id="0yi1-Wfi2QRWIN-qVs_s-20" style="edgeStyle=elbowEdgeStyle;rounded=0;orthogonalLoop=1;jettySize=auto;html=1;exitX=0.5;exitY=1;exitDx=0;exitDy=0;fontFamily=Cascadia Code;fontSize=8;fontColor=#FFFFFF;startArrow=openThin;startFill=0;endArrow=openThin;endFill=0;strokeWidth=2;jumpSize=6;startSize=3;endSize=3;" parent="1" source="0yi1-Wfi2QRWIN-qVs_s-12" target="0yi1-Wfi2QRWIN-qVs_s-7" edge="1">
                    <mxGeometry relative="1" as="geometry"/>
                </mxCell>
                <mxCell id="0yi1-Wfi2QRWIN-qVs_s-12" value="μC" style="rounded=0;whiteSpace=wrap;html=1;fillColor=#e51400;strokeColor=#B20000;fillStyle=auto;shadow=0;strokeWidth=1;perimeterSpacing=0;fontColor=#ffffff;fontFamily=Cascadia Code;fontStyle=1;fontSize=11;" parent="1" vertex="1">
                    <mxGeometry x="200" y="430" width="20" height="20" as="geometry"/>
                </mxCell>
                <mxCell id="0yi1-Wfi2QRWIN-qVs_s-22" style="edgeStyle=none;rounded=0;orthogonalLoop=1;jettySize=auto;html=1;exitX=0.5;exitY=1;exitDx=0;exitDy=0;entryX=0.5;entryY=0;entryDx=0;entryDy=0;fontFamily=Cascadia Code;fontSize=8;fontColor=#FFFFFF;startArrow=openThin;startFill=0;endArrow=openThin;endFill=0;endSize=3;startSize=3;strokeWidth=2;" parent="1" source="0yi1-Wfi2QRWIN-qVs_s-13" target="0yi1-Wfi2QRWIN-qVs_s-11" edge="1">
                    <mxGeometry relative="1" as="geometry"/>
                </mxCell>
                <mxCell id="0yi1-Wfi2QRWIN-qVs_s-23" style="edgeStyle=none;rounded=0;orthogonalLoop=1;jettySize=auto;html=1;exitX=0.5;exitY=1;exitDx=0;exitDy=0;entryX=0.5;entryY=0;entryDx=0;entryDy=0;fontFamily=Cascadia Code;fontSize=8;fontColor=#FFFFFF;startArrow=openThin;startFill=0;endArrow=openThin;endFill=0;endSize=3;startSize=3;strokeWidth=2;" parent="1" source="0yi1-Wfi2QRWIN-qVs_s-13" target="0yi1-Wfi2QRWIN-qVs_s-12" edge="1">
                    <mxGeometry relative="1" as="geometry"/>
                </mxCell>
                <mxCell id="0yi1-Wfi2QRWIN-qVs_s-13" value="Supervisory&lt;br style=&quot;font-size: 8px;&quot;&gt;Computers" style="rounded=0;whiteSpace=wrap;html=1;fillColor=#60a917;strokeColor=#2D7600;fillStyle=auto;shadow=0;strokeWidth=1;perimeterSpacing=0;fontColor=#ffffff;fontFamily=Cascadia Code;fontStyle=1;fontSize=8;" parent="1" vertex="1">
                    <mxGeometry x="160" y="390" width="60" height="20" as="geometry"/>
                </mxCell>
                <mxCell id="0yi1-Wfi2QRWIN-qVs_s-15" style="rounded=0;orthogonalLoop=1;jettySize=auto;html=1;exitX=0.5;exitY=1;exitDx=0;exitDy=0;entryX=0.5;entryY=0;entryDx=0;entryDy=0;fontFamily=Cascadia Code;fontSize=8;fontColor=#FFFFFF;startArrow=openThin;startFill=0;endArrow=openThin;endFill=0;endSize=3;startSize=3;strokeWidth=2;" parent="1" source="0yi1-Wfi2QRWIN-qVs_s-14" target="0yi1-Wfi2QRWIN-qVs_s-9" edge="1">
                    <mxGeometry relative="1" as="geometry"/>
                </mxCell>
                <mxCell id="0yi1-Wfi2QRWIN-qVs_s-21" style="rounded=0;orthogonalLoop=1;jettySize=auto;html=1;exitX=0.5;exitY=1;exitDx=0;exitDy=0;entryX=0.5;entryY=0;entryDx=0;entryDy=0;fontFamily=Cascadia Code;fontSize=8;fontColor=#FFFFFF;startArrow=openThin;startFill=0;endArrow=openThin;endFill=0;endSize=3;startSize=3;strokeWidth=2;" parent="1" source="0yi1-Wfi2QRWIN-qVs_s-14" target="0yi1-Wfi2QRWIN-qVs_s-10" edge="1">
                    <mxGeometry relative="1" as="geometry"/>
                </mxCell>
                <mxCell id="0yi1-Wfi2QRWIN-qVs_s-25" style="edgeStyle=none;rounded=0;orthogonalLoop=1;jettySize=auto;html=1;exitX=0.5;exitY=0;exitDx=0;exitDy=0;entryX=0.5;entryY=1;entryDx=0;entryDy=0;fontFamily=Cascadia Code;fontSize=8;fontColor=#FFFFFF;startArrow=openThin;startFill=0;endArrow=openThin;endFill=0;strokeWidth=2;endSize=3;startSize=3;" parent="1" source="0yi1-Wfi2QRWIN-qVs_s-14" target="0yi1-Wfi2QRWIN-qVs_s-24" edge="1">
                    <mxGeometry relative="1" as="geometry"/>
                </mxCell>
                <mxCell id="0yi1-Wfi2QRWIN-qVs_s-14" value="Supervisory&lt;br style=&quot;font-size: 8px;&quot;&gt;Computers" style="rounded=0;whiteSpace=wrap;html=1;fillColor=#60a917;strokeColor=#2D7600;fillStyle=auto;shadow=0;strokeWidth=1;perimeterSpacing=0;fontColor=#ffffff;fontFamily=Cascadia Code;fontStyle=1;fontSize=8;" parent="1" vertex="1">
                    <mxGeometry x="90" y="390" width="60" height="20" as="geometry"/>
                </mxCell>
                <mxCell id="0yi1-Wfi2QRWIN-qVs_s-27" style="edgeStyle=none;rounded=0;orthogonalLoop=1;jettySize=auto;html=1;exitX=0.5;exitY=1;exitDx=0;exitDy=0;entryX=0.5;entryY=0;entryDx=0;entryDy=0;fontFamily=Cascadia Code;fontSize=8;fontColor=#FFFFFF;startArrow=openThin;startFill=0;endArrow=openThin;endFill=0;strokeWidth=2;endSize=3;startSize=3;" parent="1" source="0yi1-Wfi2QRWIN-qVs_s-24" target="0yi1-Wfi2QRWIN-qVs_s-13" edge="1">
                    <mxGeometry relative="1" as="geometry"/>
                </mxCell>
                <mxCell id="0yi1-Wfi2QRWIN-qVs_s-29" style="edgeStyle=none;rounded=0;orthogonalLoop=1;jettySize=auto;html=1;exitX=0.75;exitY=0;exitDx=0;exitDy=0;entryX=0.25;entryY=1;entryDx=0;entryDy=0;fontFamily=Cascadia Code;fontSize=8;fontColor=#FFFFFF;startArrow=openThin;startFill=0;endArrow=openThin;endFill=0;strokeWidth=2;endSize=3;startSize=3;" parent="1" source="0yi1-Wfi2QRWIN-qVs_s-24" target="0yi1-Wfi2QRWIN-qVs_s-28" edge="1">
                    <mxGeometry relative="1" as="geometry"/>
                </mxCell>
                <mxCell id="0yi1-Wfi2QRWIN-qVs_s-24" value="Coordinating&lt;br&gt;Computer" style="rounded=0;whiteSpace=wrap;html=1;fillColor=#1ba1e2;strokeColor=#006EAF;fillStyle=auto;shadow=0;strokeWidth=1;perimeterSpacing=0;fontColor=#ffffff;fontFamily=Cascadia Code;fontStyle=1;fontSize=8;" parent="1" vertex="1">
                    <mxGeometry x="125" y="350" width="60" height="20" as="geometry"/>
                </mxCell>
                <mxCell id="0yi1-Wfi2QRWIN-qVs_s-50" style="edgeStyle=none;rounded=0;jumpSize=6;orthogonalLoop=1;jettySize=auto;html=1;exitX=0.75;exitY=1;exitDx=0;exitDy=0;entryX=0.25;entryY=0;entryDx=0;entryDy=0;strokeWidth=2;fontFamily=Cascadia Code;fontSize=8;fontColor=#FFFFFF;startArrow=openThin;startFill=0;endArrow=openThin;endFill=0;startSize=3;endSize=3;" parent="1" source="0yi1-Wfi2QRWIN-qVs_s-28" target="0yi1-Wfi2QRWIN-qVs_s-49" edge="1">
                    <mxGeometry relative="1" as="geometry"/>
                </mxCell>
                <mxCell id="0yi1-Wfi2QRWIN-qVs_s-28" value="Computer&lt;br&gt;Center" style="rounded=0;whiteSpace=wrap;html=1;fillColor=#647687;strokeColor=#314354;fillStyle=auto;shadow=0;strokeWidth=1;perimeterSpacing=0;fontColor=#ffffff;fontFamily=Cascadia Code;fontStyle=1;fontSize=8;" parent="1" vertex="1">
                    <mxGeometry x="190" y="310" width="60" height="20" as="geometry"/>
                </mxCell>
                <mxCell id="0yi1-Wfi2QRWIN-qVs_s-32" value="Plant" style="rounded=0;whiteSpace=wrap;html=1;fillColor=#f0a30a;strokeColor=#BD7000;fillStyle=auto;shadow=0;strokeWidth=1;perimeterSpacing=0;fontColor=#FFFFFF;fontFamily=Cascadia Code;fontStyle=1;fontSize=11;" parent="1" vertex="1">
                    <mxGeometry x="230" y="470" width="130" height="20" as="geometry"/>
                </mxCell>
                <mxCell id="0yi1-Wfi2QRWIN-qVs_s-33" style="edgeStyle=elbowEdgeStyle;rounded=0;orthogonalLoop=1;jettySize=auto;html=1;exitX=0.5;exitY=1;exitDx=0;exitDy=0;fontFamily=Cascadia Code;fontSize=8;fontColor=#FFFFFF;startArrow=openThin;startFill=0;endArrow=openThin;endFill=0;strokeWidth=2;jumpSize=6;startSize=3;endSize=3;" parent="1" source="0yi1-Wfi2QRWIN-qVs_s-34" target="0yi1-Wfi2QRWIN-qVs_s-32" edge="1">
                    <mxGeometry relative="1" as="geometry"/>
                </mxCell>
                <mxCell id="0yi1-Wfi2QRWIN-qVs_s-34" value="μC" style="rounded=0;whiteSpace=wrap;html=1;fillColor=#e51400;strokeColor=#B20000;fillStyle=auto;shadow=0;strokeWidth=1;perimeterSpacing=0;fontColor=#ffffff;fontFamily=Cascadia Code;fontStyle=1;fontSize=11;" parent="1" vertex="1">
                    <mxGeometry x="230" y="430" width="20" height="20" as="geometry"/>
                </mxCell>
                <mxCell id="0yi1-Wfi2QRWIN-qVs_s-35" style="edgeStyle=elbowEdgeStyle;rounded=0;orthogonalLoop=1;jettySize=auto;html=1;exitX=0.5;exitY=1;exitDx=0;exitDy=0;fontFamily=Cascadia Code;fontSize=8;fontColor=#FFFFFF;startArrow=openThin;startFill=0;endArrow=openThin;endFill=0;strokeWidth=2;jumpSize=6;startSize=3;endSize=3;" parent="1" source="0yi1-Wfi2QRWIN-qVs_s-36" target="0yi1-Wfi2QRWIN-qVs_s-32" edge="1">
                    <mxGeometry relative="1" as="geometry"/>
                </mxCell>
                <mxCell id="0yi1-Wfi2QRWIN-qVs_s-36" value="μC" style="rounded=0;whiteSpace=wrap;html=1;fillColor=#e51400;strokeColor=#B20000;fillStyle=auto;shadow=0;strokeWidth=1;perimeterSpacing=0;fontColor=#ffffff;fontFamily=Cascadia Code;fontStyle=1;fontSize=11;" parent="1" vertex="1">
                    <mxGeometry x="270" y="430" width="20" height="20" as="geometry"/>
                </mxCell>
                <mxCell id="0yi1-Wfi2QRWIN-qVs_s-37" style="edgeStyle=elbowEdgeStyle;rounded=0;orthogonalLoop=1;jettySize=auto;html=1;exitX=0.5;exitY=1;exitDx=0;exitDy=0;fontFamily=Cascadia Code;fontSize=8;fontColor=#FFFFFF;startArrow=openThin;startFill=0;endArrow=openThin;endFill=0;strokeWidth=2;jumpSize=6;startSize=3;endSize=3;" parent="1" source="0yi1-Wfi2QRWIN-qVs_s-38" target="0yi1-Wfi2QRWIN-qVs_s-32" edge="1">
                    <mxGeometry relative="1" as="geometry"/>
                </mxCell>
                <mxCell id="0yi1-Wfi2QRWIN-qVs_s-38" value="μC" style="rounded=0;whiteSpace=wrap;html=1;fillColor=#e51400;strokeColor=#B20000;fillStyle=auto;shadow=0;strokeWidth=1;perimeterSpacing=0;fontColor=#ffffff;fontFamily=Cascadia Code;fontStyle=1;fontSize=11;" parent="1" vertex="1">
                    <mxGeometry x="300" y="430" width="20" height="20" as="geometry"/>
                </mxCell>
                <mxCell id="0yi1-Wfi2QRWIN-qVs_s-39" style="edgeStyle=elbowEdgeStyle;rounded=0;orthogonalLoop=1;jettySize=auto;html=1;exitX=0.5;exitY=1;exitDx=0;exitDy=0;fontFamily=Cascadia Code;fontSize=8;fontColor=#FFFFFF;startArrow=openThin;startFill=0;endArrow=openThin;endFill=0;strokeWidth=2;jumpSize=6;startSize=3;endSize=3;" parent="1" source="0yi1-Wfi2QRWIN-qVs_s-40" target="0yi1-Wfi2QRWIN-qVs_s-32" edge="1">
                    <mxGeometry relative="1" as="geometry"/>
                </mxCell>
                <mxCell id="0yi1-Wfi2QRWIN-qVs_s-40" value="μC" style="rounded=0;whiteSpace=wrap;html=1;fillColor=#e51400;strokeColor=#B20000;fillStyle=auto;shadow=0;strokeWidth=1;perimeterSpacing=0;fontColor=#ffffff;fontFamily=Cascadia Code;fontStyle=1;fontSize=11;" parent="1" vertex="1">
                    <mxGeometry x="340" y="430" width="20" height="20" as="geometry"/>
                </mxCell>
                <mxCell id="0yi1-Wfi2QRWIN-qVs_s-41" style="edgeStyle=none;rounded=0;orthogonalLoop=1;jettySize=auto;html=1;exitX=0.5;exitY=1;exitDx=0;exitDy=0;entryX=0.5;entryY=0;entryDx=0;entryDy=0;fontFamily=Cascadia Code;fontSize=8;fontColor=#FFFFFF;startArrow=openThin;startFill=0;endArrow=openThin;endFill=0;endSize=3;startSize=3;strokeWidth=2;" parent="1" source="0yi1-Wfi2QRWIN-qVs_s-43" target="0yi1-Wfi2QRWIN-qVs_s-38" edge="1">
                    <mxGeometry relative="1" as="geometry"/>
                </mxCell>
                <mxCell id="0yi1-Wfi2QRWIN-qVs_s-42" style="edgeStyle=none;rounded=0;orthogonalLoop=1;jettySize=auto;html=1;exitX=0.5;exitY=1;exitDx=0;exitDy=0;entryX=0.5;entryY=0;entryDx=0;entryDy=0;fontFamily=Cascadia Code;fontSize=8;fontColor=#FFFFFF;startArrow=openThin;startFill=0;endArrow=openThin;endFill=0;endSize=3;startSize=3;strokeWidth=2;" parent="1" source="0yi1-Wfi2QRWIN-qVs_s-43" target="0yi1-Wfi2QRWIN-qVs_s-40" edge="1">
                    <mxGeometry relative="1" as="geometry"/>
                </mxCell>
                <mxCell id="0yi1-Wfi2QRWIN-qVs_s-43" value="Supervisory&lt;br style=&quot;font-size: 8px;&quot;&gt;Computers" style="rounded=0;whiteSpace=wrap;html=1;fillColor=#60a917;strokeColor=#2D7600;fillStyle=auto;shadow=0;strokeWidth=1;perimeterSpacing=0;fontColor=#ffffff;fontFamily=Cascadia Code;fontStyle=1;fontSize=8;" parent="1" vertex="1">
                    <mxGeometry x="300" y="390" width="60" height="20" as="geometry"/>
                </mxCell>
                <mxCell id="0yi1-Wfi2QRWIN-qVs_s-44" style="rounded=0;orthogonalLoop=1;jettySize=auto;html=1;exitX=0.5;exitY=1;exitDx=0;exitDy=0;entryX=0.5;entryY=0;entryDx=0;entryDy=0;fontFamily=Cascadia Code;fontSize=8;fontColor=#FFFFFF;startArrow=openThin;startFill=0;endArrow=openThin;endFill=0;endSize=3;startSize=3;strokeWidth=2;" parent="1" source="0yi1-Wfi2QRWIN-qVs_s-47" target="0yi1-Wfi2QRWIN-qVs_s-34" edge="1">
                    <mxGeometry relative="1" as="geometry"/>
                </mxCell>
                <mxCell id="0yi1-Wfi2QRWIN-qVs_s-45" style="rounded=0;orthogonalLoop=1;jettySize=auto;html=1;exitX=0.5;exitY=1;exitDx=0;exitDy=0;entryX=0.5;entryY=0;entryDx=0;entryDy=0;fontFamily=Cascadia Code;fontSize=8;fontColor=#FFFFFF;startArrow=openThin;startFill=0;endArrow=openThin;endFill=0;endSize=3;startSize=3;strokeWidth=2;" parent="1" source="0yi1-Wfi2QRWIN-qVs_s-47" target="0yi1-Wfi2QRWIN-qVs_s-36" edge="1">
                    <mxGeometry relative="1" as="geometry"/>
                </mxCell>
                <mxCell id="0yi1-Wfi2QRWIN-qVs_s-46" style="edgeStyle=none;rounded=0;orthogonalLoop=1;jettySize=auto;html=1;exitX=0.5;exitY=0;exitDx=0;exitDy=0;entryX=0.5;entryY=1;entryDx=0;entryDy=0;fontFamily=Cascadia Code;fontSize=8;fontColor=#FFFFFF;startArrow=openThin;startFill=0;endArrow=openThin;endFill=0;strokeWidth=2;endSize=3;startSize=3;" parent="1" source="0yi1-Wfi2QRWIN-qVs_s-47" target="0yi1-Wfi2QRWIN-qVs_s-49" edge="1">
                    <mxGeometry relative="1" as="geometry"/>
                </mxCell>
                <mxCell id="0yi1-Wfi2QRWIN-qVs_s-47" value="Supervisory&lt;br style=&quot;font-size: 8px;&quot;&gt;Computers" style="rounded=0;whiteSpace=wrap;html=1;fillColor=#60a917;strokeColor=#2D7600;fillStyle=auto;shadow=0;strokeWidth=1;perimeterSpacing=0;fontColor=#ffffff;fontFamily=Cascadia Code;fontStyle=1;fontSize=8;" parent="1" vertex="1">
                    <mxGeometry x="230" y="390" width="60" height="20" as="geometry"/>
                </mxCell>
                <mxCell id="0yi1-Wfi2QRWIN-qVs_s-48" style="edgeStyle=none;rounded=0;orthogonalLoop=1;jettySize=auto;html=1;exitX=0.5;exitY=1;exitDx=0;exitDy=0;entryX=0.5;entryY=0;entryDx=0;entryDy=0;fontFamily=Cascadia Code;fontSize=8;fontColor=#FFFFFF;startArrow=openThin;startFill=0;endArrow=openThin;endFill=0;strokeWidth=2;endSize=3;startSize=3;" parent="1" source="0yi1-Wfi2QRWIN-qVs_s-49" target="0yi1-Wfi2QRWIN-qVs_s-43" edge="1">
                    <mxGeometry relative="1" as="geometry"/>
                </mxCell>
                <mxCell id="0yi1-Wfi2QRWIN-qVs_s-49" value="Coordinating&lt;br&gt;Computer" style="rounded=0;whiteSpace=wrap;html=1;fillColor=#1ba1e2;strokeColor=#006EAF;fillStyle=auto;shadow=0;strokeWidth=1;perimeterSpacing=0;fontColor=#ffffff;fontFamily=Cascadia Code;fontStyle=1;fontSize=8;" parent="1" vertex="1">
                    <mxGeometry x="265" y="350" width="60" height="20" as="geometry"/>
                </mxCell>
                <mxCell id="0yi1-Wfi2QRWIN-qVs_s-58" value="&lt;span style=&quot;font-size: 10px;&quot;&gt;Level 4&lt;br style=&quot;font-size: 10px;&quot;&gt;&lt;span style=&quot;font-weight: normal; font-size: 10px;&quot;&gt;Production Scheduling&lt;/span&gt;&lt;br style=&quot;font-size: 10px;&quot;&gt;&lt;/span&gt;" style="text;html=1;strokeColor=none;fillColor=none;align=left;verticalAlign=middle;whiteSpace=wrap;rounded=0;shadow=0;fillStyle=auto;strokeWidth=1;spacingLeft=5;fontFamily=Cascadia Code;fontSize=10;spacing=0;spacingBottom=0;spacingTop=-2;fontStyle=1" parent="1" vertex="1">
                    <mxGeometry x="370" y="300" width="130" height="40" as="geometry"/>
                </mxCell>
                <mxCell id="0yi1-Wfi2QRWIN-qVs_s-59" value="Input" style="html=1;shadow=0;dashed=0;align=left;verticalAlign=middle;shape=mxgraph.arrows2.arrow;dy=0;dx=10;notch=0;rounded=0;fillStyle=auto;strokeWidth=1;fontFamily=Cascadia Code;fontSize=12;spacingLeft=5;fillColor=#fff2cc;strokeColor=#d6b656;fontStyle=1" parent="1" vertex="1">
                    <mxGeometry x="580" y="490" width="60" height="30" as="geometry"/>
                </mxCell>
                <mxCell id="0yi1-Wfi2QRWIN-qVs_s-60" value="Top" style="rounded=1;whiteSpace=wrap;html=1;fontFamily=Cascadia Code;dashed=1;verticalAlign=top;absoluteArcSize=1;arcSize=10;fontStyle=1" parent="1" vertex="1">
                    <mxGeometry x="45" y="10" width="600" height="120" as="geometry"/>
                </mxCell>
                <mxCell id="0yi1-Wfi2QRWIN-qVs_s-61" value="&lt;b&gt;Y&lt;/b&gt;&amp;nbsp;(SubY)" style="rounded=1;whiteSpace=wrap;html=1;verticalAlign=top;fontFamily=Cascadia Code;fontStyle=0;container=0;fillColor=#FFFFFF;strokeColor=#82b366;absoluteArcSize=1;arcSize=10;" parent="1" vertex="1">
                    <mxGeometry x="395" y="20" width="200" height="100" as="geometry"/>
                </mxCell>
                <mxCell id="0yi1-Wfi2QRWIN-qVs_s-62" value="SubSubY" style="rounded=1;whiteSpace=wrap;html=1;fontFamily=Cascadia Code;container=0;absoluteArcSize=1;arcSize=10;fontStyle=1" parent="1" vertex="1">
                    <mxGeometry x="445" y="50" width="100" height="60" as="geometry"/>
                </mxCell>
                <mxCell id="0yi1-Wfi2QRWIN-qVs_s-63" value="X1&lt;br&gt;&lt;span style=&quot;font-weight: normal;&quot;&gt;(SubX)&lt;/span&gt;" style="rounded=1;whiteSpace=wrap;html=1;fontFamily=Cascadia Code;fillColor=#FFFFFF;strokeColor=#d6b656;fontStyle=1;absoluteArcSize=1;arcSize=10;" parent="1" vertex="1">
                    <mxGeometry x="95" y="60" width="80" height="60" as="geometry"/>
                </mxCell>
                <mxCell id="0yi1-Wfi2QRWIN-qVs_s-64" style="edgeStyle=orthogonalEdgeStyle;rounded=0;orthogonalLoop=1;jettySize=auto;html=1;exitX=1;exitY=0.5;exitDx=0;exitDy=0;strokeWidth=2;fontFamily=Cascadia Code;endArrow=none;endFill=0;exitPerimeter=0;entryX=0;entryY=0.5;entryDx=0;entryDy=0;entryPerimeter=0;" parent="1" source="0yi1-Wfi2QRWIN-qVs_s-68" target="0yi1-Wfi2QRWIN-qVs_s-69" edge="1">
                    <mxGeometry relative="1" as="geometry">
                        <mxPoint x="65" y="110" as="targetPoint"/>
                    </mxGeometry>
                </mxCell>
                <mxCell id="0yi1-Wfi2QRWIN-qVs_s-65" value="xx" style="edgeStyle=orthogonalEdgeStyle;rounded=0;orthogonalLoop=1;jettySize=auto;html=1;exitX=1;exitY=0.5;exitDx=0;exitDy=0;entryX=0;entryY=0.5;entryDx=0;entryDy=0;strokeWidth=2;fontFamily=Cascadia Code;endArrow=none;endFill=0;fontSize=15;fillColor=#dae8fc;strokeColor=#6c8ebf;exitPerimeter=0;entryPerimeter=0;" parent="1" source="0yi1-Wfi2QRWIN-qVs_s-70" target="0yi1-Wfi2QRWIN-qVs_s-72" edge="1">
                    <mxGeometry relative="1" as="geometry"/>
                </mxCell>
                <mxCell id="0yi1-Wfi2QRWIN-qVs_s-66" value="xy" style="edgeStyle=orthogonalEdgeStyle;rounded=0;orthogonalLoop=1;jettySize=auto;html=1;exitX=1;exitY=0.5;exitDx=0;exitDy=0;strokeWidth=2;fontFamily=Cascadia Code;fontSize=15;endArrow=none;endFill=0;fillColor=#dae8fc;strokeColor=#6c8ebf;exitPerimeter=0;entryX=0;entryY=0.5;entryDx=0;entryDy=0;entryPerimeter=0;" parent="1" source="0yi1-Wfi2QRWIN-qVs_s-73" target="0yi1-Wfi2QRWIN-qVs_s-74" edge="1">
                    <mxGeometry relative="1" as="geometry">
                        <mxPoint x="375" y="120" as="targetPoint"/>
                    </mxGeometry>
                </mxCell>
                <mxCell id="0yi1-Wfi2QRWIN-qVs_s-67" style="edgeStyle=orthogonalEdgeStyle;rounded=0;orthogonalLoop=1;jettySize=auto;html=1;exitX=1;exitY=0.5;exitDx=0;exitDy=0;entryX=0;entryY=0.5;entryDx=0;entryDy=0;endArrow=none;endFill=0;strokeWidth=2;fontFamily=Cascadia Code;exitPerimeter=0;entryPerimeter=0;" parent="1" source="0yi1-Wfi2QRWIN-qVs_s-74" target="0yi1-Wfi2QRWIN-qVs_s-76" edge="1">
                    <mxGeometry relative="1" as="geometry">
                        <Array as="points">
                            <mxPoint x="425" y="90"/>
                            <mxPoint x="425" y="90"/>
                        </Array>
                    </mxGeometry>
                </mxCell>
                <mxCell id="0yi1-Wfi2QRWIN-qVs_s-68" value="A" style="html=1;shadow=0;dashed=0;align=left;verticalAlign=top;shape=mxgraph.arrows2.arrow;dy=0;dx=10;notch=0;rounded=0;fillStyle=auto;strokeWidth=1;fontFamily=Cascadia Code;fontSize=14;spacingLeft=4;spacingTop=-5;spacingBottom=0;" parent="1" vertex="1">
                    <mxGeometry x="35" y="80" width="30" height="20" as="geometry"/>
                </mxCell>
                <mxCell id="0yi1-Wfi2QRWIN-qVs_s-69" value="A" style="html=1;shadow=0;dashed=0;align=left;verticalAlign=top;shape=mxgraph.arrows2.arrow;dy=0;dx=10;notch=0;rounded=0;fillStyle=auto;strokeWidth=1;fontFamily=Cascadia Code;fontSize=14;spacingLeft=4;spacingTop=-5;spacingBottom=0;" parent="1" vertex="1">
                    <mxGeometry x="85" y="80" width="30" height="20" as="geometry"/>
                </mxCell>
                <mxCell id="0yi1-Wfi2QRWIN-qVs_s-70" value="B" style="html=1;shadow=0;dashed=0;align=left;verticalAlign=top;shape=mxgraph.arrows2.arrow;dy=0;dx=10;notch=0;rounded=0;fillStyle=auto;strokeWidth=1;fontFamily=Cascadia Code;fontSize=14;spacingLeft=4;spacingTop=-5;spacingBottom=0;" parent="1" vertex="1">
                    <mxGeometry x="165" y="80" width="30" height="20" as="geometry"/>
                </mxCell>
                <mxCell id="0yi1-Wfi2QRWIN-qVs_s-71" value="X2&lt;br&gt;&lt;span style=&quot;font-weight: normal;&quot;&gt;(SubX)&lt;/span&gt;" style="rounded=1;whiteSpace=wrap;html=1;fontFamily=Cascadia Code;fillColor=#FFFFFF;strokeColor=#d6b656;fontStyle=1;absoluteArcSize=1;arcSize=10;" parent="1" vertex="1">
                    <mxGeometry x="245" y="60" width="80" height="60" as="geometry"/>
                </mxCell>
                <mxCell id="0yi1-Wfi2QRWIN-qVs_s-72" value="A" style="html=1;shadow=0;dashed=0;align=left;verticalAlign=top;shape=mxgraph.arrows2.arrow;dy=0;dx=10;notch=0;rounded=0;fillStyle=auto;strokeWidth=1;fontFamily=Cascadia Code;fontSize=14;spacingLeft=4;spacingTop=-5;spacingBottom=0;" parent="1" vertex="1">
                    <mxGeometry x="235" y="80" width="30" height="20" as="geometry"/>
                </mxCell>
                <mxCell id="0yi1-Wfi2QRWIN-qVs_s-73" value="B" style="html=1;shadow=0;dashed=0;align=left;verticalAlign=top;shape=mxgraph.arrows2.arrow;dy=0;dx=10;notch=0;rounded=0;fillStyle=auto;strokeWidth=1;fontFamily=Cascadia Code;fontSize=14;spacingLeft=4;spacingTop=-5;spacingBottom=0;" parent="1" vertex="1">
                    <mxGeometry x="315" y="80" width="30" height="20" as="geometry"/>
                </mxCell>
                <mxCell id="0yi1-Wfi2QRWIN-qVs_s-74" value="A" style="html=1;shadow=0;dashed=0;align=left;verticalAlign=top;shape=mxgraph.arrows2.arrow;dy=0;dx=10;notch=0;rounded=0;fillStyle=auto;strokeWidth=1;fontFamily=Cascadia Code;fontSize=14;spacingLeft=4;spacingTop=-5;spacingBottom=0;" parent="1" vertex="1">
                    <mxGeometry x="385" y="80" width="30" height="20" as="geometry"/>
                </mxCell>
                <mxCell id="0yi1-Wfi2QRWIN-qVs_s-75" value="B" style="html=1;shadow=0;dashed=0;align=left;verticalAlign=top;shape=mxgraph.arrows2.arrow;dy=0;dx=10;notch=0;rounded=0;fillStyle=auto;strokeWidth=1;fontFamily=Cascadia Code;fontSize=14;spacingLeft=4;spacingTop=-5;spacingBottom=0;" parent="1" vertex="1">
                    <mxGeometry x="535" y="80" width="30" height="20" as="geometry"/>
                </mxCell>
                <mxCell id="0yi1-Wfi2QRWIN-qVs_s-76" value="A" style="html=1;shadow=0;dashed=0;align=left;verticalAlign=top;shape=mxgraph.arrows2.arrow;dy=0;dx=10;notch=0;rounded=0;fillStyle=auto;strokeWidth=1;fontFamily=Cascadia Code;fontSize=14;spacingLeft=4;spacingTop=-5;spacingBottom=0;" parent="1" vertex="1">
                    <mxGeometry x="435" y="80" width="30" height="20" as="geometry"/>
                </mxCell>
                <mxCell id="0yi1-Wfi2QRWIN-qVs_s-77" style="edgeStyle=orthogonalEdgeStyle;rounded=0;orthogonalLoop=1;jettySize=auto;html=1;endArrow=none;endFill=0;strokeWidth=2;fontFamily=Cascadia Code;exitX=0;exitY=0.5;exitDx=0;exitDy=0;exitPerimeter=0;entryX=1;entryY=0.5;entryDx=0;entryDy=0;entryPerimeter=0;" parent="1" source="0yi1-Wfi2QRWIN-qVs_s-78" target="0yi1-Wfi2QRWIN-qVs_s-75" edge="1">
                    <mxGeometry relative="1" as="geometry">
                        <mxPoint x="425" y="100" as="sourcePoint"/>
                        <mxPoint x="635" y="140" as="targetPoint"/>
                        <Array as="points"/>
                    </mxGeometry>
                </mxCell>
                <mxCell id="0yi1-Wfi2QRWIN-qVs_s-78" value="B" style="html=1;shadow=0;dashed=0;align=left;verticalAlign=top;shape=mxgraph.arrows2.arrow;dy=0;dx=10;notch=0;rounded=0;fillStyle=auto;strokeWidth=1;fontFamily=Cascadia Code;fontSize=14;spacingLeft=4;spacingTop=-5;spacingBottom=0;" parent="1" vertex="1">
                    <mxGeometry x="585" y="80" width="30" height="20" as="geometry"/>
                </mxCell>
                <mxCell id="0yi1-Wfi2QRWIN-qVs_s-79" value="B" style="html=1;shadow=0;dashed=0;align=left;verticalAlign=top;shape=mxgraph.arrows2.arrow;dy=0;dx=10;notch=0;rounded=0;fillStyle=auto;strokeWidth=1;fontFamily=Cascadia Code;fontSize=14;spacingLeft=4;spacingTop=-5;spacingBottom=0;" parent="1" vertex="1">
                    <mxGeometry x="635" y="80" width="30" height="20" as="geometry"/>
                </mxCell>
                <mxCell id="0yi1-Wfi2QRWIN-qVs_s-80" style="edgeStyle=orthogonalEdgeStyle;rounded=0;orthogonalLoop=1;jettySize=auto;html=1;endArrow=none;endFill=0;strokeWidth=2;fontFamily=Cascadia Code;exitX=1;exitY=0.5;exitDx=0;exitDy=0;exitPerimeter=0;entryX=0;entryY=0.5;entryDx=0;entryDy=0;entryPerimeter=0;" parent="1" source="0yi1-Wfi2QRWIN-qVs_s-78" target="0yi1-Wfi2QRWIN-qVs_s-79" edge="1">
                    <mxGeometry relative="1" as="geometry">
                        <mxPoint x="595" y="100" as="sourcePoint"/>
                        <mxPoint x="575" y="100" as="targetPoint"/>
                        <Array as="points"/>
                    </mxGeometry>
                </mxCell>
                <mxCell id="0yi1-Wfi2QRWIN-qVs_s-81" value="Output" style="html=1;shadow=0;dashed=0;align=left;verticalAlign=middle;shape=mxgraph.arrows2.arrow;dy=0;dx=10;notch=0;rounded=0;fillStyle=auto;strokeWidth=1;fontFamily=Cascadia Code;fontSize=12;spacingLeft=5;fillColor=#fff2cc;strokeColor=#d6b656;fontStyle=1" parent="1" vertex="1">
                    <mxGeometry x="730" y="490" width="60" height="30" as="geometry"/>
                </mxCell>
                <mxCell id="0yi1-Wfi2QRWIN-qVs_s-84" value="System" style="rounded=0;whiteSpace=wrap;html=1;fontFamily=Cascadia Code;fillColor=#dae8fc;strokeColor=#6c8ebf;fontStyle=1;absoluteArcSize=1;arcSize=10;" parent="1" vertex="1">
                    <mxGeometry x="650" y="485" width="70" height="40" as="geometry"/>
                </mxCell>
                <mxCell id="0yi1-Wfi2QRWIN-qVs_s-85" value="Measure" style="html=1;shadow=0;dashed=0;align=right;verticalAlign=middle;shape=mxgraph.arrows2.arrow;dy=0;dx=10;notch=0;rounded=0;fillStyle=auto;strokeWidth=1;fontFamily=Cascadia Code;fontSize=12;spacingLeft=0;fillColor=#fff2cc;strokeColor=#d6b656;fontStyle=1;flipH=1;spacingRight=5;" parent="1" vertex="1">
                    <mxGeometry x="690" y="325" width="70" height="30" as="geometry"/>
                </mxCell>
                <mxCell id="0yi1-Wfi2QRWIN-qVs_s-86" value="Control" style="html=1;shadow=0;dashed=0;align=left;verticalAlign=middle;shape=mxgraph.arrows2.arrow;dy=0;dx=10;notch=0;rounded=0;fillStyle=auto;strokeWidth=1;fontFamily=Cascadia Code;fontSize=12;spacingLeft=5;fillColor=#fff2cc;strokeColor=#d6b656;fontStyle=1" parent="1" vertex="1">
                    <mxGeometry x="690" y="285" width="70" height="30" as="geometry"/>
                </mxCell>
                <mxCell id="0yi1-Wfi2QRWIN-qVs_s-87" value="System" style="rounded=0;whiteSpace=wrap;html=1;fontFamily=Cascadia Code;fillColor=#dae8fc;strokeColor=#6c8ebf;fontStyle=1;absoluteArcSize=1;arcSize=10;" parent="1" vertex="1">
                    <mxGeometry x="610" y="285" width="70" height="70" as="geometry"/>
                </mxCell>
                <mxCell id="0yi1-Wfi2QRWIN-qVs_s-94" value="" style="rounded=0;whiteSpace=wrap;html=1;verticalAlign=top;fontFamily=Cascadia Code;fontStyle=0;container=0;fillColor=#FFFFFF;strokeColor=none;absoluteArcSize=1;arcSize=10;" parent="1" vertex="1">
                    <mxGeometry x="570" y="385" width="230" height="80" as="geometry"/>
                </mxCell>
                <mxCell id="0yi1-Wfi2QRWIN-qVs_s-88" value="Output" style="html=1;shadow=0;dashed=0;align=right;verticalAlign=middle;shape=mxgraph.arrows2.arrow;dy=0;dx=10;notch=0;rounded=0;fillStyle=auto;strokeWidth=1;fontFamily=Cascadia Code;fontSize=12;spacingLeft=0;fillColor=#fff2cc;strokeColor=#d6b656;fontStyle=1;flipH=1;spacingRight=5;" parent="1" vertex="1">
                    <mxGeometry x="635" y="430" width="60" height="30" as="geometry"/>
                </mxCell>
                <mxCell id="0yi1-Wfi2QRWIN-qVs_s-89" value="Input" style="html=1;shadow=0;dashed=0;align=left;verticalAlign=middle;shape=mxgraph.arrows2.arrow;dy=0;dx=10;notch=0;rounded=0;fillStyle=auto;strokeWidth=1;fontFamily=Cascadia Code;fontSize=12;spacingLeft=5;fillColor=#fff2cc;strokeColor=#d6b656;fontStyle=1" parent="1" vertex="1">
                    <mxGeometry x="635" y="390" width="60" height="30" as="geometry"/>
                </mxCell>
                <mxCell id="0yi1-Wfi2QRWIN-qVs_s-90" value="System" style="rounded=0;whiteSpace=wrap;html=1;fontFamily=Cascadia Code;fillColor=#dae8fc;strokeColor=#6c8ebf;fontStyle=1;absoluteArcSize=1;arcSize=10;" parent="1" vertex="1">
                    <mxGeometry x="705" y="390" width="70" height="70" as="geometry"/>
                </mxCell>
                <mxCell id="0yi1-Wfi2QRWIN-qVs_s-92" value="" style="shape=umlActor;verticalLabelPosition=bottom;verticalAlign=top;html=1;outlineConnect=0;rounded=0;shadow=0;fillStyle=auto;strokeWidth=1;fontFamily=Cascadia Code;fontSize=12;" parent="1" vertex="1">
                    <mxGeometry x="595" y="395" width="30" height="60" as="geometry"/>
                </mxCell>
                <mxCell id="0yi1-Wfi2QRWIN-qVs_s-101" value="&lt;span style=&quot;font-size: 10px;&quot;&gt;Level 3&lt;br style=&quot;font-size: 10px;&quot;&gt;&lt;span style=&quot;font-weight: 400; font-size: 10px;&quot;&gt;Production Control&lt;/span&gt;&lt;br style=&quot;font-size: 10px;&quot;&gt;&lt;/span&gt;" style="text;html=1;strokeColor=none;fillColor=none;align=left;verticalAlign=middle;whiteSpace=wrap;rounded=0;shadow=0;fillStyle=auto;strokeWidth=1;spacingLeft=5;fontFamily=Cascadia Code;fontSize=10;spacing=0;spacingBottom=0;spacingTop=-2;fontStyle=1" parent="1" vertex="1">
                    <mxGeometry x="370" y="340" width="130" height="40" as="geometry"/>
                </mxCell>
                <mxCell id="0yi1-Wfi2QRWIN-qVs_s-102" value="&lt;span style=&quot;font-size: 10px;&quot;&gt;Level 2&lt;br style=&quot;font-size: 10px;&quot;&gt;&lt;span style=&quot;font-weight: normal; font-size: 10px;&quot;&gt;Plant Supervisory&lt;/span&gt;&lt;br style=&quot;font-size: 10px;&quot;&gt;&lt;/span&gt;" style="text;html=1;strokeColor=none;fillColor=none;align=left;verticalAlign=middle;whiteSpace=wrap;rounded=0;shadow=0;fillStyle=auto;strokeWidth=1;spacingLeft=5;fontFamily=Cascadia Code;fontSize=10;spacing=0;spacingBottom=0;spacingTop=-2;fontStyle=1" parent="1" vertex="1">
                    <mxGeometry x="370" y="380" width="130" height="40" as="geometry"/>
                </mxCell>
                <mxCell id="0yi1-Wfi2QRWIN-qVs_s-103" value="&lt;span style=&quot;font-size: 10px;&quot;&gt;Level 1&lt;br style=&quot;font-size: 10px;&quot;&gt;&lt;span style=&quot;font-weight: 400; font-size: 10px;&quot;&gt;Direct Control&lt;/span&gt;&lt;br style=&quot;font-size: 10px;&quot;&gt;&lt;/span&gt;" style="text;html=1;strokeColor=none;fillColor=none;align=left;verticalAlign=middle;whiteSpace=wrap;rounded=0;shadow=0;fillStyle=auto;strokeWidth=1;spacingLeft=5;fontFamily=Cascadia Code;fontSize=10;spacing=0;spacingBottom=0;spacingTop=-2;fontStyle=1" parent="1" vertex="1">
                    <mxGeometry x="370" y="420" width="130" height="40" as="geometry"/>
                </mxCell>
                <mxCell id="0yi1-Wfi2QRWIN-qVs_s-104" value="&lt;span style=&quot;font-size: 10px;&quot;&gt;Level 0&lt;br style=&quot;font-size: 10px;&quot;&gt;&lt;span style=&quot;font-weight: 400; font-size: 10px;&quot;&gt;Field Level&lt;/span&gt;&lt;br style=&quot;font-size: 10px;&quot;&gt;&lt;/span&gt;" style="text;html=1;strokeColor=none;fillColor=none;align=left;verticalAlign=middle;whiteSpace=wrap;rounded=0;shadow=0;fillStyle=auto;strokeWidth=1;spacingLeft=5;fontFamily=Cascadia Code;fontSize=10;spacing=0;spacingBottom=0;spacingTop=-2;fontStyle=1" parent="1" vertex="1">
                    <mxGeometry x="370" y="460" width="130" height="40" as="geometry"/>
                </mxCell>
                <mxCell id="UyANY9crpCaUTtqs_EAQ-2" value="" style="endArrow=open;html=1;rounded=0;startArrow=open;startFill=0;endFill=0;exitX=0;exitY=0.5;exitDx=0;exitDy=0;entryX=0.5;entryY=1;entryDx=0;entryDy=0;" parent="1" source="UyANY9crpCaUTtqs_EAQ-9" edge="1">
                    <mxGeometry width="50" height="50" relative="1" as="geometry">
                        <mxPoint x="420" y="720" as="sourcePoint"/>
                        <mxPoint x="300" y="650" as="targetPoint"/>
                        <Array as="points">
                            <mxPoint x="300" y="720"/>
                        </Array>
                    </mxGeometry>
                </mxCell>
                <mxCell id="UyANY9crpCaUTtqs_EAQ-3" value="w" style="endArrow=open;startArrow=open;html=1;rounded=0;endFill=0;startFill=0;endSize=4;startSize=4;" parent="1" edge="1">
                    <mxGeometry y="8" width="50" height="50" relative="1" as="geometry">
                        <mxPoint x="335" y="665" as="sourcePoint"/>
                        <mxPoint x="375" y="665" as="targetPoint"/>
                        <mxPoint as="offset"/>
                    </mxGeometry>
                </mxCell>
                <mxCell id="UyANY9crpCaUTtqs_EAQ-4" value="" style="endArrow=none;html=1;rounded=0;startSize=4;endSize=4;" parent="1" edge="1">
                    <mxGeometry width="50" height="50" relative="1" as="geometry">
                        <mxPoint x="335" y="670" as="sourcePoint"/>
                        <mxPoint x="335" y="660" as="targetPoint"/>
                    </mxGeometry>
                </mxCell>
                <mxCell id="UyANY9crpCaUTtqs_EAQ-5" value="" style="endArrow=none;html=1;rounded=0;startSize=4;endSize=4;" parent="1" edge="1">
                    <mxGeometry width="50" height="50" relative="1" as="geometry">
                        <mxPoint x="375" y="670" as="sourcePoint"/>
                        <mxPoint x="375" y="660" as="targetPoint"/>
                    </mxGeometry>
                </mxCell>
                <mxCell id="UyANY9crpCaUTtqs_EAQ-9" value="&lt;span style=&quot;font-size: 10px;&quot;&gt;t&lt;br style=&quot;font-size: 10px;&quot;&gt;&lt;/span&gt;" style="text;html=1;strokeColor=none;fillColor=none;align=center;verticalAlign=middle;whiteSpace=wrap;rounded=0;shadow=0;fillStyle=auto;strokeWidth=1;spacingLeft=0;fontFamily=Roboto;fontSize=10;spacing=0;spacingBottom=0;spacingTop=-2;fontStyle=0;fontSource=https%3A%2F%2Ffonts.googleapis.com%2Fcss%3Ffamily%3DRoboto;" parent="1" vertex="1">
                    <mxGeometry x="410" y="710" width="10" height="20" as="geometry"/>
                </mxCell>
                <mxCell id="UyANY9crpCaUTtqs_EAQ-19" value="" style="endArrow=none;html=1;rounded=0;startSize=4;endSize=4;fillColor=#f8cecc;strokeColor=#b85450;strokeWidth=3;" parent="1" edge="1">
                    <mxGeometry width="50" height="50" relative="1" as="geometry">
                        <mxPoint x="243.14" y="720" as="sourcePoint"/>
                        <mxPoint x="243.14" y="670" as="targetPoint"/>
                    </mxGeometry>
                </mxCell>
                <mxCell id="UyANY9crpCaUTtqs_EAQ-20" value="" style="endArrow=none;html=1;rounded=0;startSize=4;endSize=4;fillColor=#f8cecc;strokeColor=#b85450;strokeWidth=3;" parent="1" edge="1">
                    <mxGeometry width="50" height="50" relative="1" as="geometry">
                        <mxPoint x="180" y="720" as="sourcePoint"/>
                        <mxPoint x="180" y="670" as="targetPoint"/>
                    </mxGeometry>
                </mxCell>
                <mxCell id="UyANY9crpCaUTtqs_EAQ-21" value="" style="endArrow=none;html=1;rounded=0;startSize=4;endSize=4;fillColor=#d5e8d4;strokeColor=#82b366;strokeWidth=3;" parent="1" edge="1">
                    <mxGeometry width="50" height="50" relative="1" as="geometry">
                        <mxPoint x="210.14" y="720" as="sourcePoint"/>
                        <mxPoint x="210.14" y="670" as="targetPoint"/>
                    </mxGeometry>
                </mxCell>
                <mxCell id="UyANY9crpCaUTtqs_EAQ-22" value="" style="endArrow=none;html=1;rounded=0;startSize=4;endSize=4;fillColor=#d5e8d4;strokeColor=#82b366;strokeWidth=3;" parent="1" edge="1">
                    <mxGeometry width="50" height="50" relative="1" as="geometry">
                        <mxPoint x="215.14" y="720" as="sourcePoint"/>
                        <mxPoint x="215.14" y="670" as="targetPoint"/>
                    </mxGeometry>
                </mxCell>
                <mxCell id="UyANY9crpCaUTtqs_EAQ-23" value="" style="endArrow=none;html=1;rounded=0;startSize=4;endSize=4;fillColor=#d5e8d4;strokeColor=#82b366;strokeWidth=3;" parent="1" edge="1">
                    <mxGeometry width="50" height="50" relative="1" as="geometry">
                        <mxPoint x="218.14" y="720" as="sourcePoint"/>
                        <mxPoint x="218.14" y="670" as="targetPoint"/>
                    </mxGeometry>
                </mxCell>
                <mxCell id="UyANY9crpCaUTtqs_EAQ-24" value="" style="endArrow=none;html=1;rounded=0;startSize=4;endSize=4;fillColor=#d5e8d4;strokeColor=#82b366;strokeWidth=3;" parent="1" edge="1">
                    <mxGeometry width="50" height="50" relative="1" as="geometry">
                        <mxPoint x="225.14" y="720" as="sourcePoint"/>
                        <mxPoint x="225.14" y="670" as="targetPoint"/>
                    </mxGeometry>
                </mxCell>
                <mxCell id="UyANY9crpCaUTtqs_EAQ-25" value="" style="endArrow=none;html=1;rounded=0;startSize=4;endSize=4;fillColor=#d5e8d4;strokeColor=#82b366;strokeWidth=3;" parent="1" edge="1">
                    <mxGeometry width="50" height="50" relative="1" as="geometry">
                        <mxPoint x="233.14" y="720" as="sourcePoint"/>
                        <mxPoint x="233.14" y="670" as="targetPoint"/>
                    </mxGeometry>
                </mxCell>
                <mxCell id="UyANY9crpCaUTtqs_EAQ-27" value="" style="endArrow=none;html=1;rounded=0;startSize=4;endSize=4;" parent="1" edge="1">
                    <mxGeometry width="50" height="50" relative="1" as="geometry">
                        <mxPoint x="195.14" y="670" as="sourcePoint"/>
                        <mxPoint x="195.14" y="660" as="targetPoint"/>
                    </mxGeometry>
                </mxCell>
                <mxCell id="UyANY9crpCaUTtqs_EAQ-28" value="" style="endArrow=none;html=1;rounded=0;startSize=4;endSize=4;" parent="1" edge="1">
                    <mxGeometry width="50" height="50" relative="1" as="geometry">
                        <mxPoint x="235.14" y="670" as="sourcePoint"/>
                        <mxPoint x="235.14" y="660" as="targetPoint"/>
                    </mxGeometry>
                </mxCell>
                <mxCell id="UyANY9crpCaUTtqs_EAQ-29" value="" style="endArrow=none;html=1;rounded=0;startSize=4;endSize=4;fillColor=#d5e8d4;strokeColor=#82b366;strokeWidth=3;" parent="1" edge="1">
                    <mxGeometry width="50" height="50" relative="1" as="geometry">
                        <mxPoint x="200.14" y="720" as="sourcePoint"/>
                        <mxPoint x="200.14" y="670" as="targetPoint"/>
                    </mxGeometry>
                </mxCell>
                <mxCell id="UyANY9crpCaUTtqs_EAQ-30" value="w" style="endArrow=open;startArrow=open;html=1;rounded=0;endFill=0;startFill=0;endSize=4;startSize=4;" parent="1" edge="1">
                    <mxGeometry y="8" width="50" height="50" relative="1" as="geometry">
                        <mxPoint x="195" y="665" as="sourcePoint"/>
                        <mxPoint x="235" y="665" as="targetPoint"/>
                        <mxPoint as="offset"/>
                    </mxGeometry>
                </mxCell>
                <mxCell id="UyANY9crpCaUTtqs_EAQ-31" value="" style="endArrow=open;html=1;rounded=0;startArrow=open;startFill=0;endFill=0;exitX=0;exitY=0.5;exitDx=0;exitDy=0;entryX=0.5;entryY=1;entryDx=0;entryDy=0;" parent="1" edge="1">
                    <mxGeometry width="50" height="50" relative="1" as="geometry">
                        <mxPoint x="270" y="720" as="sourcePoint"/>
                        <mxPoint x="160" y="650" as="targetPoint"/>
                        <Array as="points">
                            <mxPoint x="160" y="720"/>
                        </Array>
                    </mxGeometry>
                </mxCell>
                <mxCell id="UyANY9crpCaUTtqs_EAQ-36" value="&lt;font style=&quot;font-size: 9px&quot;&gt;&lt;font color=&quot;#000000&quot; style=&quot;font-size: 9px&quot;&gt;System &lt;/font&gt;&lt;b style=&quot;font-size: 9px&quot;&gt;inkorrekt&lt;/b&gt;&lt;/font&gt;" style="text;html=1;align=center;verticalAlign=middle;whiteSpace=wrap;rounded=0;shadow=0;fillStyle=auto;strokeWidth=1;spacingLeft=0;fontFamily=Roboto;fontSize=9;spacing=0;spacingBottom=0;spacingTop=-2;fontStyle=0;fontSource=https%3A%2F%2Ffonts.googleapis.com%2Fcss%3Ffamily%3DRoboto;fontColor=#B85450;" parent="1" vertex="1">
                    <mxGeometry x="167.5" y="630" width="85" height="10" as="geometry"/>
                </mxCell>
                <mxCell id="UyANY9crpCaUTtqs_EAQ-37" value="&lt;font color=&quot;#000000&quot; style=&quot;font-size: 9px&quot;&gt;System&amp;nbsp;&lt;/font&gt;&lt;b style=&quot;font-size: 9px&quot;&gt;&lt;font color=&quot;#d79b00&quot;&gt;degradiert&lt;/font&gt;&lt;/b&gt;" style="text;html=1;align=center;verticalAlign=middle;whiteSpace=wrap;rounded=0;shadow=0;fillStyle=auto;strokeWidth=1;spacingLeft=0;fontFamily=Roboto;fontSize=14;spacing=0;spacingBottom=0;spacingTop=-2;fontStyle=0;fontSource=https%3A%2F%2Ffonts.googleapis.com%2Fcss%3Ffamily%3DRoboto;fontColor=#B85450;" parent="1" vertex="1">
                    <mxGeometry x="325" y="630" width="50" height="10" as="geometry"/>
                </mxCell>
                <mxCell id="UyANY9crpCaUTtqs_EAQ-40" value="&lt;span style=&quot;font-size: 10px;&quot;&gt;f&lt;br style=&quot;font-size: 10px;&quot;&gt;&lt;/span&gt;" style="text;html=1;strokeColor=none;fillColor=none;align=center;verticalAlign=middle;whiteSpace=wrap;rounded=0;shadow=0;fillStyle=auto;strokeWidth=1;spacingLeft=0;fontFamily=Roboto;fontSize=10;spacing=0;spacingBottom=0;spacingTop=-2;fontStyle=0;fontSource=https%3A%2F%2Ffonts.googleapis.com%2Fcss%3Ffamily%3DRoboto;" parent="1" vertex="1">
                    <mxGeometry x="290" y="640" width="20" height="10" as="geometry"/>
                </mxCell>
                <mxCell id="UyANY9crpCaUTtqs_EAQ-41" value="&lt;span style=&quot;font-size: 10px;&quot;&gt;f&lt;br style=&quot;font-size: 10px;&quot;&gt;&lt;/span&gt;" style="text;html=1;strokeColor=none;fillColor=none;align=center;verticalAlign=middle;whiteSpace=wrap;rounded=0;shadow=0;fillStyle=auto;strokeWidth=1;spacingLeft=0;fontFamily=Roboto;fontSize=10;spacing=0;spacingBottom=0;spacingTop=-2;fontStyle=0;fontSource=https%3A%2F%2Ffonts.googleapis.com%2Fcss%3Ffamily%3DRoboto;" parent="1" vertex="1">
                    <mxGeometry x="150" y="640" width="20" height="10" as="geometry"/>
                </mxCell>
                <mxCell id="UyANY9crpCaUTtqs_EAQ-42" value="&lt;span style=&quot;font-size: 10px;&quot;&gt;t&lt;br style=&quot;font-size: 10px;&quot;&gt;&lt;/span&gt;" style="text;html=1;strokeColor=none;fillColor=none;align=center;verticalAlign=middle;whiteSpace=wrap;rounded=0;shadow=0;fillStyle=auto;strokeWidth=1;spacingLeft=0;fontFamily=Roboto;fontSize=10;spacing=0;spacingBottom=0;spacingTop=-2;fontStyle=0;fontSource=https%3A%2F%2Ffonts.googleapis.com%2Fcss%3Ffamily%3DRoboto;" parent="1" vertex="1">
                    <mxGeometry x="270" y="710" width="10" height="20" as="geometry"/>
                </mxCell>
                <mxCell id="UyANY9crpCaUTtqs_EAQ-43" value="" style="group" parent="1" vertex="1" connectable="0">
                    <mxGeometry x="181" y="645" width="62" height="5" as="geometry"/>
                </mxCell>
                <mxCell id="UyANY9crpCaUTtqs_EAQ-34" value="" style="curved=1;endArrow=openThin;html=1;rounded=0;fontSize=14;startSize=4;endSize=4;strokeWidth=1;sketch=0;fillColor=#f5f5f5;strokeColor=#666666;endFill=0;" parent="UyANY9crpCaUTtqs_EAQ-43" edge="1">
                    <mxGeometry width="50" height="50" relative="1" as="geometry">
                        <mxPoint x="29" y="-5" as="sourcePoint"/>
                        <mxPoint x="62" y="20" as="targetPoint"/>
                        <Array as="points">
                            <mxPoint x="29" y="5"/>
                            <mxPoint x="62"/>
                        </Array>
                    </mxGeometry>
                </mxCell>
                <mxCell id="UyANY9crpCaUTtqs_EAQ-35" value="" style="curved=1;endArrow=openThin;html=1;rounded=0;fontSize=14;startSize=4;endSize=4;strokeWidth=1;sketch=0;fillColor=#f5f5f5;strokeColor=#666666;endFill=0;" parent="UyANY9crpCaUTtqs_EAQ-43" edge="1">
                    <mxGeometry width="50" height="50" relative="1" as="geometry">
                        <mxPoint x="29" y="-5" as="sourcePoint"/>
                        <mxPoint x="-1" y="20" as="targetPoint"/>
                        <Array as="points">
                            <mxPoint x="29" y="5"/>
                            <mxPoint/>
                        </Array>
                    </mxGeometry>
                </mxCell>
                <mxCell id="UyANY9crpCaUTtqs_EAQ-44" value="" style="group" parent="1" vertex="1" connectable="0">
                    <mxGeometry x="321" y="645" width="62" height="5" as="geometry"/>
                </mxCell>
                <mxCell id="UyANY9crpCaUTtqs_EAQ-45" value="" style="curved=1;endArrow=openThin;html=1;rounded=0;fontSize=14;startSize=4;endSize=4;strokeWidth=1;sketch=0;fillColor=#f5f5f5;strokeColor=#666666;endFill=0;" parent="UyANY9crpCaUTtqs_EAQ-44" edge="1">
                    <mxGeometry width="50" height="50" relative="1" as="geometry">
                        <mxPoint x="29" y="-5" as="sourcePoint"/>
                        <mxPoint x="62" y="20" as="targetPoint"/>
                        <Array as="points">
                            <mxPoint x="29" y="5"/>
                            <mxPoint x="62"/>
                        </Array>
                    </mxGeometry>
                </mxCell>
                <mxCell id="UyANY9crpCaUTtqs_EAQ-46" value="" style="curved=1;endArrow=openThin;html=1;rounded=0;fontSize=14;startSize=4;endSize=4;strokeWidth=1;sketch=0;fillColor=#f5f5f5;strokeColor=#666666;endFill=0;" parent="UyANY9crpCaUTtqs_EAQ-44" edge="1">
                    <mxGeometry width="50" height="50" relative="1" as="geometry">
                        <mxPoint x="29" y="-5" as="sourcePoint"/>
                        <mxPoint x="-1" y="20" as="targetPoint"/>
                        <Array as="points">
                            <mxPoint x="29" y="5"/>
                            <mxPoint/>
                        </Array>
                    </mxGeometry>
                </mxCell>
                <mxCell id="2" value="BASEPRI = 2" style="html=1;shadow=0;dashed=0;align=center;verticalAlign=middle;shape=mxgraph.arrows2.arrow;dy=0;dx=10;notch=0;rounded=0;fillStyle=auto;strokeWidth=1;fontFamily=Cascadia Code;fontSize=12;spacingLeft=5;fillColor=#f8cecc;strokeColor=#b85450;fontStyle=1;fontSource=https%3A%2F%2Ffonts.googleapis.com%2Fcss%3Ffamily%3DCascadia%2BCode;flipH=1;" vertex="1" parent="1">
                    <mxGeometry x="670" y="660" width="100" height="20" as="geometry"/>
                </mxCell>
                <mxCell id="3" value="0" style="text;html=1;strokeColor=none;fillColor=none;align=center;verticalAlign=middle;whiteSpace=wrap;rounded=0;fontFamily=Cascadia Code;fontSource=https%3A%2F%2Ffonts.googleapis.com%2Fcss%3Ffamily%3DCascadia%2BCode;" vertex="1" parent="1">
                    <mxGeometry x="640" y="620" width="20" height="20" as="geometry"/>
                </mxCell>
                <mxCell id="4" value="Highest" style="text;html=1;strokeColor=none;fillColor=none;align=left;verticalAlign=middle;whiteSpace=wrap;rounded=0;fontSize=10;fontFamily=Cascadia Code;fontSource=https%3A%2F%2Ffonts.googleapis.com%2Fcss%3Ffamily%3DCascadia%2BCode;fontStyle=1;fontColor=#999999;" vertex="1" parent="1">
                    <mxGeometry x="660" y="620" width="85" height="20" as="geometry"/>
                </mxCell>
                <mxCell id="5" value="1" style="text;html=1;strokeColor=none;fillColor=none;align=center;verticalAlign=middle;whiteSpace=wrap;rounded=0;fontFamily=Cascadia Code;fontSource=https%3A%2F%2Ffonts.googleapis.com%2Fcss%3Ffamily%3DCascadia%2BCode;" vertex="1" parent="1">
                    <mxGeometry x="640" y="640" width="20" height="20" as="geometry"/>
                </mxCell>
                <mxCell id="6" value="2" style="text;html=1;strokeColor=none;fillColor=none;align=center;verticalAlign=middle;whiteSpace=wrap;rounded=0;fontFamily=Cascadia Code;fontSource=https%3A%2F%2Ffonts.googleapis.com%2Fcss%3Ffamily%3DCascadia%2BCode;" vertex="1" parent="1">
                    <mxGeometry x="640" y="660" width="20" height="20" as="geometry"/>
                </mxCell>
                <mxCell id="7" value="3" style="text;html=1;strokeColor=none;fillColor=none;align=center;verticalAlign=middle;whiteSpace=wrap;rounded=0;fontFamily=Cascadia Code;fontSource=https%3A%2F%2Ffonts.googleapis.com%2Fcss%3Ffamily%3DCascadia%2BCode;" vertex="1" parent="1">
                    <mxGeometry x="640" y="680" width="20" height="20" as="geometry"/>
                </mxCell>
                <mxCell id="8" value="4" style="text;html=1;strokeColor=none;fillColor=none;align=center;verticalAlign=middle;whiteSpace=wrap;rounded=0;fontFamily=Cascadia Code;fontSource=https%3A%2F%2Ffonts.googleapis.com%2Fcss%3Ffamily%3DCascadia%2BCode;" vertex="1" parent="1">
                    <mxGeometry x="640" y="700" width="20" height="20" as="geometry"/>
                </mxCell>
                <mxCell id="10" value="..." style="text;html=1;strokeColor=none;fillColor=none;align=center;verticalAlign=middle;whiteSpace=wrap;rounded=0;fontFamily=Cascadia Code;fontSource=https%3A%2F%2Ffonts.googleapis.com%2Fcss%3Ffamily%3DCascadia%2BCode;" vertex="1" parent="1">
                    <mxGeometry x="640" y="720" width="20" height="20" as="geometry"/>
                </mxCell>
                <mxCell id="11" value="to Lowest" style="text;html=1;strokeColor=none;fillColor=none;align=left;verticalAlign=middle;whiteSpace=wrap;rounded=0;fontSize=10;fontFamily=Cascadia Code;fontSource=https%3A%2F%2Ffonts.googleapis.com%2Fcss%3Ffamily%3DCascadia%2BCode;fontStyle=1;fontColor=#999999;" vertex="1" parent="1">
                    <mxGeometry x="660" y="720" width="85" height="20" as="geometry"/>
                </mxCell>
                <mxCell id="14" value="" style="endArrow=none;html=1;fontFamily=Cascadia Code;fontSource=https%3A%2F%2Ffonts.googleapis.com%2Fcss%3Ffamily%3DCascadia%2BCode;fontSize=10;fontColor=#B55B00;fillColor=#f8cecc;strokeColor=#b85450;" edge="1" parent="1">
                    <mxGeometry width="50" height="50" relative="1" as="geometry">
                        <mxPoint x="620" y="660.5" as="sourcePoint"/>
                        <mxPoint x="630" y="660.5" as="targetPoint"/>
                    </mxGeometry>
                </mxCell>
                <mxCell id="15" value="" style="endArrow=none;html=1;fontFamily=Cascadia Code;fontSource=https%3A%2F%2Ffonts.googleapis.com%2Fcss%3Ffamily%3DCascadia%2BCode;fontSize=10;fontColor=#B55B00;fillColor=#f8cecc;strokeColor=#B85450;" edge="1" parent="1">
                    <mxGeometry width="50" height="50" relative="1" as="geometry">
                        <mxPoint x="625" y="660" as="sourcePoint"/>
                        <mxPoint x="625" y="720" as="targetPoint"/>
                    </mxGeometry>
                </mxCell>
                <mxCell id="16" value="" style="endArrow=none;html=1;fontFamily=Cascadia Code;fontSource=https%3A%2F%2Ffonts.googleapis.com%2Fcss%3Ffamily%3DCascadia%2BCode;fontSize=10;fontColor=#B55B00;exitX=0;exitY=1;exitDx=0;exitDy=0;fillColor=#f8cecc;strokeColor=#b85450;" edge="1" parent="1">
                    <mxGeometry width="50" height="50" relative="1" as="geometry">
                        <mxPoint x="630" y="740" as="sourcePoint"/>
                        <mxPoint x="620" y="740" as="targetPoint"/>
                    </mxGeometry>
                </mxCell>
                <mxCell id="17" value="" style="endArrow=none;html=1;fontFamily=Cascadia Code;fontSource=https%3A%2F%2Ffonts.googleapis.com%2Fcss%3Ffamily%3DCascadia%2BCode;fontSize=10;fontColor=#B55B00;dashed=1;dashPattern=1 1;fillColor=#f8cecc;strokeColor=#b85450;" edge="1" parent="1">
                    <mxGeometry width="50" height="50" relative="1" as="geometry">
                        <mxPoint x="625" y="720" as="sourcePoint"/>
                        <mxPoint x="625" y="740" as="targetPoint"/>
                    </mxGeometry>
                </mxCell>
                <mxCell id="18" value="" style="endArrow=none;html=1;fontFamily=Cascadia Code;fontSource=https%3A%2F%2Ffonts.googleapis.com%2Fcss%3Ffamily%3DCascadia%2BCode;fontSize=10;fontColor=#B55B00;fillColor=#d5e8d4;strokeColor=#82b366;" edge="1" parent="1">
                    <mxGeometry width="50" height="50" relative="1" as="geometry">
                        <mxPoint x="620" y="659.5" as="sourcePoint"/>
                        <mxPoint x="630" y="659.5" as="targetPoint"/>
                    </mxGeometry>
                </mxCell>
                <mxCell id="19" value="" style="endArrow=none;html=1;fontFamily=Cascadia Code;fontSource=https%3A%2F%2Ffonts.googleapis.com%2Fcss%3Ffamily%3DCascadia%2BCode;fontSize=10;fontColor=#B55B00;fillColor=#d5e8d4;strokeColor=#82b366;" edge="1" parent="1">
                    <mxGeometry width="50" height="50" relative="1" as="geometry">
                        <mxPoint x="620" y="620" as="sourcePoint"/>
                        <mxPoint x="630" y="620" as="targetPoint"/>
                    </mxGeometry>
                </mxCell>
                <mxCell id="20" value="" style="endArrow=none;html=1;fontFamily=Cascadia Code;fontSource=https%3A%2F%2Ffonts.googleapis.com%2Fcss%3Ffamily%3DCascadia%2BCode;fontSize=10;fontColor=#B55B00;fillColor=#d5e8d4;strokeColor=#82B366;" edge="1" parent="1">
                    <mxGeometry width="50" height="50" relative="1" as="geometry">
                        <mxPoint x="625" y="620" as="sourcePoint"/>
                        <mxPoint x="625" y="660" as="targetPoint"/>
                    </mxGeometry>
                </mxCell>
                <mxCell id="21" value="active" style="text;html=1;strokeColor=none;fillColor=none;align=right;verticalAlign=middle;whiteSpace=wrap;rounded=0;fontSize=10;fontFamily=Cascadia Code;fontSource=https%3A%2F%2Ffonts.googleapis.com%2Fcss%3Ffamily%3DCascadia%2BCode;fontStyle=1;fontColor=#6D9656;spacingRight=2;" vertex="1" parent="1">
                    <mxGeometry x="570" y="630" width="55" height="20" as="geometry"/>
                </mxCell>
                <mxCell id="22" value="&lt;b&gt;&lt;u&gt;&lt;font style=&quot;font-size: 10px;&quot;&gt;Prio&lt;/font&gt;&lt;/u&gt;&lt;/b&gt;" style="text;html=1;strokeColor=none;fillColor=none;align=center;verticalAlign=middle;whiteSpace=wrap;rounded=0;fontFamily=Cascadia Code;fontSource=https%3A%2F%2Ffonts.googleapis.com%2Fcss%3Ffamily%3DCascadia%2BCode;" vertex="1" parent="1">
                    <mxGeometry x="630" y="600" width="40" height="20" as="geometry"/>
                </mxCell>
                <mxCell id="23" value="inactive" style="text;html=1;strokeColor=none;fillColor=none;align=right;verticalAlign=middle;whiteSpace=wrap;rounded=0;fontSize=10;fontFamily=Cascadia Code;fontSource=https%3A%2F%2Ffonts.googleapis.com%2Fcss%3Ffamily%3DCascadia%2BCode;fontStyle=1;fontColor=#9E4845;spacingRight=2;" vertex="1" parent="1">
                    <mxGeometry x="570" y="690" width="55" height="20" as="geometry"/>
                </mxCell>
                <mxCell id="24" value="" style="endArrow=none;html=1;dashed=1;dashPattern=1 1;strokeColor=#666666;fontFamily=Cascadia Code;fontSource=https%3A%2F%2Ffonts.googleapis.com%2Fcss%3Ffamily%3DCascadia%2BCode;fontSize=10;fontColor=#999999;exitX=0;exitY=0;exitDx=0;exitDy=0;fillColor=#f5f5f5;" edge="1" parent="1" source="6">
                    <mxGeometry width="50" height="50" relative="1" as="geometry">
                        <mxPoint x="640" y="720" as="sourcePoint"/>
                        <mxPoint x="630" y="660" as="targetPoint"/>
                    </mxGeometry>
                </mxCell>
                <mxCell id="26" value="" style="endArrow=none;html=1;dashed=1;dashPattern=1 1;strokeColor=#666666;fontFamily=Cascadia Code;fontSource=https%3A%2F%2Ffonts.googleapis.com%2Fcss%3Ffamily%3DCascadia%2BCode;fontSize=10;fontColor=#999999;exitX=0;exitY=0;exitDx=0;exitDy=0;fillColor=#f5f5f5;" edge="1" parent="1" source="3">
                    <mxGeometry width="50" height="50" relative="1" as="geometry">
                        <mxPoint x="650" y="670" as="sourcePoint"/>
                        <mxPoint x="630" y="620" as="targetPoint"/>
                    </mxGeometry>
                </mxCell>
                <mxCell id="27" value="" style="endArrow=none;html=1;dashed=1;dashPattern=1 1;strokeColor=#666666;fontFamily=Cascadia Code;fontSource=https%3A%2F%2Ffonts.googleapis.com%2Fcss%3Ffamily%3DCascadia%2BCode;fontSize=10;fontColor=#999999;exitX=0;exitY=1;exitDx=0;exitDy=0;fillColor=#f5f5f5;" edge="1" parent="1" source="10">
                    <mxGeometry width="50" height="50" relative="1" as="geometry">
                        <mxPoint x="650" y="630" as="sourcePoint"/>
                        <mxPoint x="630" y="740" as="targetPoint"/>
                    </mxGeometry>
                </mxCell>
            </root>
        </mxGraphModel>
    </diagram>
</mxfile>